<?xml version="1.0" encoding="UTF-8" standalone="no"?>
<!-- Created with Inkscape (http://www.inkscape.org/) -->

<svg
   width="512"
   height="512"
   viewBox="0 0 512 512"
   version="1.1"
   id="svg5"
   inkscape:version="1.2.2 (b0a8486541, 2022-12-01)"
   sodipodi:docname="hyogo-don-logo.svg"
   xmlns:inkscape="http://www.inkscape.org/namespaces/inkscape"
   xmlns:sodipodi="http://sodipodi.sourceforge.net/DTD/sodipodi-0.dtd"
   xmlns="http://www.w3.org/2000/svg"
   xmlns:svg="http://www.w3.org/2000/svg">
  <sodipodi:namedview
     id="namedview7"
     pagecolor="#ffffff"
     bordercolor="#666666"
     borderopacity="1.0"
     inkscape:showpageshadow="2"
     inkscape:pageopacity="0.0"
     inkscape:pagecheckerboard="0"
     inkscape:deskcolor="#d1d1d1"
     inkscape:document-units="px"
     showgrid="false"
     inkscape:zoom="1.4741921"
     inkscape:cx="108.53402"
     inkscape:cy="275.06592"
     inkscape:window-width="1920"
     inkscape:window-height="1051"
     inkscape:window-x="-9"
     inkscape:window-y="-9"
     inkscape:window-maximized="1"
     inkscape:current-layer="layer5" />
  <defs
     id="defs2" />
  <g
     inkscape:groupmode="layer"
     id="layer5"
     inkscape:label="背景"
     style="display:inline">
    <rect
       style="fill:#000000;stroke-width:15.7417;stroke-linecap:round"
       id="rect595"
       width="522.99829"
       height="519.60663"
       x="-3.3916881"
       y="-2.7133505" />
    <path
       style="fill:#6499cd;fill-opacity:1;stroke-width:10.6782;stroke-linecap:round"
       d="M -3.3916882,257.08996 V -2.3741817 H 258.10747 519.60663 V 257.08996 516.55411 H 258.10747 -3.3916882 Z"
       id="path597" />
  </g>
  <g
     inkscape:label="縦棒"
     inkscape:groupmode="layer"
     id="layer1"
     transform="translate(27.811843,1.3566753)"
     style="display:inline">
    <g
       id="g307"
       style="fill:#ffffff">
      <path
         id="rect158"
         style="display:inline;fill:#ffffff;stroke-width:15.7417;stroke-linecap:round"
         d="M 156.01765,3.3916882 C 29.135103,87.751365 170.47983,332.62021 178.40279,504.68322 c 0,0 34.71512,-81.17205 34.59522,-121.42244 C 212.69987,283.17528 129.94788,145.48371 156.01765,3.3916882 Z M 308.59562,2.4703841 C 181.71307,86.830061 323.0578,331.69891 330.98076,503.76192 c 0,0 34.71512,-81.17205 34.59522,-121.42244 C 365.27784,282.25398 282.52585,144.56241 308.59562,2.4703841 Z"
         sodipodi:nodetypes="ccscccsc" />
    </g>
  </g>
  <g
     inkscape:groupmode="layer"
     id="layer3"
     inkscape:label="横棒"
     style="display:inline">
    <path
       style="display:inline;fill:#ffffff;fill-opacity:1;stroke-width:10.6782;stroke-linecap:round"
       d="m 117.01324,358.46441 c -35.61037,-2.74424 -62.833326,-11.41182 -83.472435,-26.577 -7.666358,-5.63308 -19.777874,-18.30224 -25.0014615,-26.15259 -2.5540254,-3.83836 -4.526946,-7.09558 -4.3842679,-7.23825 0.1426781,-0.14268 3.3107425,0.47945 7.0401434,1.3825 9.945789,2.40834 29.508454,5.51931 43.071792,6.84954 14.348207,1.40721 50.643049,1.5871 66.137919,0.32781 21.19488,-1.72255 39.91205,-4.00659 59.69371,-7.28439 12.88616,-2.13522 39.93636,-7.15219 40.28781,-7.47212 0.14624,-0.13313 -1.32678,-2.54593 -3.27338,-5.36178 -4.41024,-6.37965 -7.64776,-13.31884 -9.67447,-20.73594 -1.34631,-4.92706 -1.56313,-7.32007 -1.56313,-17.25228 0,-12.17918 0.94022,-17.68403 4.39826,-25.75132 l 1.39593,-3.25657 -3.23626,0.42882 c -27.69711,3.66999 -44.20529,4.82182 -69.03502,4.8168 -24.89115,-0.005 -34.58644,-0.78493 -50.875319,-4.09246 -35.8148,-7.27234 -61.615827,-23.09206 -78.9582534,-48.41268 -5.7449381,-8.38784 -5.7300144,-8.30665 -1.3097059,-7.12507 7.0092753,1.87362 24.0907033,4.97242 34.8193383,6.3167 31.996664,4.00911 68.65965,3.58116 107.89702,-1.25943 25.3861,-3.13181 44.88493,-6.59263 97.79658,-17.3578 74.73584,-15.20543 90.91057,-17.53575 121.94348,-17.56857 17.78507,-0.0188 20.39561,0.126 27.2187,1.5098 23.15027,4.69514 59.9449,18.69259 95.20706,36.21878 9.2217,4.58342 10.14956,5.18853 7.47589,4.87546 -4.09687,-0.4797 -34.76293,0.8829 -49.14706,2.18379 -22.4905,2.03403 -52.94655,6.33 -84.48545,11.9171 -18.94189,3.35554 -61.77329,11.37422 -62.9046,11.77669 -0.53352,0.1898 0.53776,2.21193 2.95636,5.58037 8.72683,12.15406 12.51182,24.01244 12.51182,39.19959 0,7.6477 -1.10194,15.10714 -3.09085,20.9232 -0.61813,1.80754 -1.00229,3.408 -0.85371,3.55659 0.14859,0.14858 4.57312,-0.3359 9.83229,-1.07663 23.23716,-3.27286 52.76702,-4.53416 64.95134,-2.77423 23.27142,3.36137 59.93864,16.70492 102.42898,37.27488 l 9.49673,4.59745 -15.94094,0.44837 c -43.44132,1.22184 -82.04639,6.47042 -168.22773,22.87152 -75.54992,14.37784 -109.23412,19.69817 -143.80758,22.71401 -14.67065,1.27972 -46.3893,1.82165 -57.31953,0.97934 z"
       id="path1414" />
  </g>
  <g
     inkscape:groupmode="layer"
     id="layer4"
     inkscape:label="黒豆"
     transform="matrix(0.92514864,0.37960505,-0.40001391,0.97488778,111.0931,-98.827676)">
    <path
       style="fill:#000000;stroke-width:16.5578;stroke-linecap:round"
       id="path520"
       sodipodi:type="arc"
       sodipodi:cx="261.5874"
       sodipodi:cy="252.76401"
       sodipodi:rx="60.643169"
       sodipodi:ry="66.361"
       sodipodi:start="0"
       sodipodi:end="6.2432871"
       sodipodi:arc-type="arc"
       d="m 322.23057,252.76401 a 60.643169,66.361 0 0 1 -60.03829,66.3577 60.643169,66.361 0 0 1 -61.23598,-65.03395 60.643169,66.361 0 0 1 58.81671,-67.65504 60.643169,66.361 0 0 1 62.4093,63.68431"
       sodipodi:open="true"
       transform="matrix(1,7.2226177e-5,8.0189315e-5,1,0,0)" />
    <path
       style="fill:#e6e6e6;fill-opacity:1;stroke-width:16.1323;stroke-linecap:round"
       id="path1474"
       transform="matrix(0.97243152,0.23318865,-0.25709336,0.96638657,0,0)"
       sodipodi:type="arc"
       sodipodi:cx="276.60599"
       sodipodi:cy="183.35756"
       sodipodi:rx="11.026375"
       sodipodi:ry="22.757557"
       sodipodi:start="0"
       sodipodi:end="6.2432871"
       sodipodi:open="true"
       sodipodi:arc-type="arc"
       d="m 287.63236,183.35756 a 11.026375,22.757557 0 0 1 -10.91639,22.75642 11.026375,22.757557 0 0 1 -11.13416,-22.30246 11.026375,22.757557 0 0 1 10.69428,-23.20133 11.026375,22.757557 0 0 1 11.3475,21.83962" />
  </g>
</svg>
